<?xml version="1.0"?>


<svg width="1024" height="1024" viewBox="0 0 270.93333 270.93333" version="1.1" id="svg5" xmlns:inkscape="http://www.inkscape.org/namespaces/inkscape" xmlns:sodipodi="http://sodipodi.sourceforge.net/DTD/sodipodi-0.dtd" xmlns="http://www.w3.org/2000/svg" xmlns:svg="http://www.w3.org/2000/svg">
  <namedview id="namedview7" pagecolor="#ffffff" bordercolor="#999999" borderopacity="1" showgrid="false"></namedview>
  <defs id="defs2"></defs>
  <g id="layer1">
    <g id="g1857" transform="matrix(2.9651449,0,0,2.9651449,-202.07839,550.93001)" style="display:inline;fill:#df097f;fill-opacity:1;stroke:none;stroke-width:0.0337251;stroke-dasharray:none">
      <g id="g812" transform="matrix(0.35277777,0,0,-0.35277777,3.2292728,21.970076)" style="fill:#df097f;fill-opacity:1;stroke:none;stroke-width:0.0955975;stroke-dasharray:none">
        <g id="g814" style="fill:#df097f;fill-opacity:1;stroke:none;stroke-width:0.0955975;stroke-dasharray:none">
          <g id="g820" style="fill:#df097f;fill-opacity:1;stroke:none;stroke-width:0.0955975;stroke-dasharray:none">
            <g id="g822" style="fill:#df097f;fill-opacity:1;stroke:none;stroke-width:0.0955975;stroke-dasharray:none">
              <path d="m 312.547,512.516 c 1.116,0.538 1.925,2.238 2.245,2.845 v 0 c 0.48,0.907 2.81,4.427 2.646,9.398 v 0 c -0.205,6.139 -2.04,14.293 -4.891,21.459 v 0 z" style="fill:#df097f;fill-opacity:1;stroke:none;stroke-width:0.0955975;stroke-dasharray:none" id="path830"></path>
            </g>
          </g>
        </g>
      </g>
      <g id="g832" transform="matrix(0.35277777,0,0,-0.35277777,3.2292728,21.970076)" style="fill:#df097f;fill-opacity:1;stroke:none;stroke-width:0.0955975;stroke-dasharray:none">
        <g id="g834" style="fill:#df097f;fill-opacity:1;stroke:none;stroke-width:0.0955975;stroke-dasharray:none">
          <g id="g840" style="fill:#df097f;fill-opacity:1;stroke:none;stroke-width:0.0955975;stroke-dasharray:none">
            <g id="g842" style="fill:#df097f;fill-opacity:1;stroke:none;stroke-width:0.0955975;stroke-dasharray:none">
              <path d="m 371.587,519.151 c -2.635,-1.725 -8.469,-4.501 -13.556,-5.303 v 0 c -1.835,-0.289 -8.495,0.262 -13.187,1.482 v 0 c -2.428,0.63 -4.175,1.685 -6.023,2.354 v 0 c -1.697,0.616 -4.01,1.846 -6.491,1.597 v 0 c -1.987,-0.202 -4.201,-1.64 -5.419,-2.941 v 0 c -1.915,-2.035 -6.508,-11.824 -6.175,-13.137 v 0 c 0.312,-1.238 2.054,-2.278 2.65,-2.67 v 0 c 0.85,-0.557 4.098,-3.186 9,-3.468 v 0 c 9.055,-0.519 22.867,2.18 31.378,6.951 v 0 c 5.172,2.898 9.011,8.19 11.949,12.314 v 0 c 3.206,4.497 5.278,7.722 5.299,7.755 v 0 0 c -0.062,-0.028 -5.987,-2.687 -9.425,-4.934" style="fill:#df097f;fill-opacity:1;stroke:none;stroke-width:0.0955975;stroke-dasharray:none" id="path850"></path>
            </g>
          </g>
        </g>
      </g>
      <g id="g852" transform="matrix(0.35277777,0,0,-0.35277777,3.2292728,21.970076)" style="fill:#df097f;fill-opacity:1;stroke:none;stroke-width:0.0955975;stroke-dasharray:none">
        <g id="g854" style="fill:#df097f;fill-opacity:1;stroke:none;stroke-width:0.0955975;stroke-dasharray:none">
          <g id="g860" style="fill:#df097f;fill-opacity:1;stroke:none;stroke-width:0.0955975;stroke-dasharray:none">
            <g id="g862" style="fill:#df097f;fill-opacity:1;stroke:none;stroke-width:0.0955975;stroke-dasharray:none">
              <path d="m 285.792,571.481 c 0.026,-0.047 3.237,-5.812 5.808,-9.086 v 0 c 1.973,-2.512 5.29,-8.163 6.558,-13.242 v 0 c 0.458,-1.831 0.515,-8.627 -0.28,-13.49 v 0 c -0.412,-2.518 -1.308,-4.384 -1.811,-6.317 v 0 c -0.464,-1.776 -1.484,-4.231 -1.007,-6.721 v 0 c 0.382,-1.993 2.027,-4.103 3.442,-5.22 v 0 c 2.218,-1.747 12.454,-5.497 13.741,-5.039 v 0 c 1.145,0.407 1.997,2.086 2.373,2.812 v 0 24.749 c -1.742,5.873 -4.213,11.665 -7.119,15.94 v 0 c -3.381,4.971 -9.04,8.369 -13.445,10.965 v 0 c -4.807,2.834 -8.232,4.634 -8.26,4.649 z" style="fill:#df097f;fill-opacity:1;stroke:none;stroke-width:0.0955975;stroke-dasharray:none" id="path870"></path>
            </g>
          </g>
        </g>
      </g>
      <g id="g872" transform="matrix(0.35277777,0,0,-0.35277777,3.2292728,21.970076)" style="fill:#df097f;fill-opacity:1;stroke:none;stroke-width:0.0955975;stroke-dasharray:none">
        <g id="g874" style="fill:#df097f;fill-opacity:1;stroke:none;stroke-width:0.0955975;stroke-dasharray:none">
          <g id="g880" style="fill:#df097f;fill-opacity:1;stroke:none;stroke-width:0.0955975;stroke-dasharray:none">
            <g id="g882" style="fill:#df097f;fill-opacity:1;stroke:none;stroke-width:0.0955975;stroke-dasharray:none">
              <path d="m 263.37,501.917 c -5.191,-2.908 -9.044,-8.221 -11.995,-12.361 v 0 c -3.212,-4.506 -5.289,-7.741 -5.316,-7.783 v 0 h 0.001 c 0.079,0.036 6.015,2.7 9.457,4.952 v 0 c 2.646,1.732 8.5,4.519 13.608,5.323 v 0 c 1.84,0.291 8.525,-0.262 13.235,-1.488 v 0 c 2.437,-0.632 4.19,-1.69 6.044,-2.363 v 0 c 1.706,-0.617 4.025,-1.851 6.515,-1.602 v 0 c 1.995,0.201 4.216,1.645 5.442,2.95 v 0 c 1.918,2.045 6.53,11.869 6.197,13.186 v 0 c -0.317,1.243 -2.063,2.287 -2.663,2.681 v 0 c -0.852,0.559 -4.111,3.197 -9.033,3.48 v 0 c -0.744,0.043 -1.521,0.064 -2.323,0.064 v 0 c -8.999,0 -21.326,-2.645 -29.169,-7.039" style="fill:#df097f;fill-opacity:1;stroke:none;stroke-width:0.0955975;stroke-dasharray:none" id="path890"></path>
            </g>
          </g>
        </g>
      </g>
      <g id="g892" transform="matrix(0.35277777,0,0,-0.35277777,3.2292728,21.970076)" style="fill:#df097f;fill-opacity:1;stroke:none;stroke-width:0.0955975;stroke-dasharray:none">
        <g id="g894" style="fill:#df097f;fill-opacity:1;stroke:none;stroke-width:0.0955975;stroke-dasharray:none">
          <g id="g900" style="fill:#df097f;fill-opacity:1;stroke:none;stroke-width:0.0955975;stroke-dasharray:none">
            <g id="g902" style="fill:#df097f;fill-opacity:1;stroke:none;stroke-width:0.0955975;stroke-dasharray:none">
              <path d="m 305.1,444.361 c -0.256,-13.018 3.985,-25.496 5.488,-27.929 v 0 c 1.02,-1.652 2.283,-4.38 4.028,-7.387 v 0 76.153 c -0.696,2.167 -1.139,3.759 -1.217,4.468 v 0 c -0.374,3.401 -1.125,14.052 -1.125,14.052 v 0 c 0,0 -6.666,-33.511 -7.174,-59.357" style="fill:#df097f;fill-opacity:1;stroke:none;stroke-width:0.0955975;stroke-dasharray:none" id="path910"></path>
            </g>
          </g>
        </g>
      </g>
      <g id="g912" transform="matrix(0.35277777,0,0,-0.35277777,3.2292728,21.970076)" style="fill:#df097f;fill-opacity:1;stroke:none;stroke-width:0.0955975;stroke-dasharray:none">
        <g id="g914" style="fill:#df097f;fill-opacity:1;stroke:none;stroke-width:0.0955975;stroke-dasharray:none">
          <g id="g920" style="fill:#df097f;fill-opacity:1;stroke:none;stroke-width:0.0955975;stroke-dasharray:none">
            <g id="g922" style="fill:#df097f;fill-opacity:1;stroke:none;stroke-width:0.0955975;stroke-dasharray:none">
              <path d="m 312.51,501.244 v -88.211 c 1.886,-3.602 4.504,-8.516 8.522,-12.511 v 0 c 18.023,-17.922 21.57,-19.79 21.57,-19.79 v 0 c 0,0 -4.099,14.443 -5.041,28.283 v 0 c -0.323,4.771 -0.964,9.438 -0.497,13.471 v 0 c 0.634,5.482 2.609,9.776 3.671,11.422 v 0 c 4.106,6.376 4.418,6.721 4.418,6.721 v 0 c 0,0 -13.773,3.183 -17.86,11.789 v 0 c -4.666,9.829 -13.441,33.547 -13.813,36.934 v 0 c -0.27,2.439 -0.732,8.619 -0.97,11.893 v 0 z" style="fill:#df097f;fill-opacity:1;stroke:none;stroke-width:0.0955975;stroke-dasharray:none" id="path930"></path>
            </g>
          </g>
        </g>
      </g>
    </g>
    <text xml:space="preserve" style="font-size:88.7576px;font-family:Arial;-inkscape-font-specification:Arial;fill:#0d2366;fill-opacity:1;stroke:#ffffff;stroke-width:0.79375;stroke-linecap:round;stroke-linejoin:round;stroke-dasharray:none;stroke-opacity:1" x="48.439972" y="241.47211" id="text523"><tspan id="tspan521" style="font-style:normal;font-variant:normal;font-weight:normal;font-stretch:normal;font-size:88.7576px;font-family:BauhausBuglerW00-Medium;-inkscape-font-specification:BauhausBuglerW00-Medium;fill:#0d2366;fill-opacity:1;stroke:#ffffff;stroke-width:0.79375;stroke-dasharray:none;stroke-opacity:1" x="48.439972" y="241.47211">CAG</tspan></text>
  </g>
</svg>
